HIERARCHY
ROOT Hips
{
  OFFSET -26.382 26.319 -317.865
  CHANNELS 6 Xposition Yposition Zposition Zrotation Xrotation Yrotation
  JOINT LeftUpLeg
  {
    OFFSET 7.673 -7.744 1.644
    CHANNELS 6 Xposition Yposition Zposition Zrotation Xrotation Yrotation
    JOINT LeftLeg
    {
      OFFSET -0.000 -55.150 0.000
      CHANNELS 6 Xposition Yposition Zposition Zrotation Xrotation Yrotation
      JOINT LeftFoot
      {
        OFFSET -0.000 -43.685 -0.000
        CHANNELS 6 Xposition Yposition Zposition Zrotation Xrotation Yrotation
        End Site
        {
          OFFSET 0.000 -9.733 5.619
        }
      }
    }
  }
  JOINT RightUpLeg
  {
    OFFSET -7.785 -7.737 1.359
    CHANNELS 6 Xposition Yposition Zposition Zrotation Xrotation Yrotation
    JOINT RightLeg
    {
      OFFSET -0.000 -56.065 0.000
      CHANNELS 6 Xposition Yposition Zposition Zrotation Xrotation Yrotation
      JOINT RightFoot
      {
        OFFSET -0.000 -43.525 -0.000
        CHANNELS 6 Xposition Yposition Zposition Zrotation Xrotation Yrotation
        End Site
        {
          OFFSET 0.000 -9.719 5.611
        }
      }
    }
  }
  JOINT Spine
  {
    OFFSET 0.000 5.941 -5.941
    CHANNELS 6 Xposition Yposition Zposition Zrotation Xrotation Yrotation
    JOINT LeftShoulder
    {
      OFFSET -0.000 32.715 0.000
      CHANNELS 6 Xposition Yposition Zposition Zrotation Xrotation Yrotation
      JOINT LeftArm
      {
        OFFSET 17.819 0.000 -0.000
        CHANNELS 6 Xposition Yposition Zposition Zrotation Xrotation Yrotation
        JOINT LeftForeArm
        {
          OFFSET 26.717 0.000 0.000
          CHANNELS 6 Xposition Yposition Zposition Zrotation Xrotation Yrotation
          JOINT LeftHand
          {
            OFFSET 26.018 0.000 -0.000
            CHANNELS 6 Xposition Yposition Zposition Zrotation Xrotation Yrotation
            JOINT LeftHandThumb1
            {
            OFFSET 4.970 -0.620 3.390
            CHANNELS 6 Xposition Yposition Zposition Zrotation Xrotation Yrotation
              JOINT LeftHandThumb2
              {
              OFFSET 2.150 -0.000 0.000
              CHANNELS 6 Xposition Yposition Zposition Zrotation Xrotation Yrotation
                JOINT LeftHandThumb3
                {
                OFFSET 2.200 -0.000 0.000
                CHANNELS 6 Xposition Yposition Zposition Zrotation Xrotation Yrotation
                  JOINT LeftHandThumb4
                  {
                  OFFSET 1.700 -0.000 0.000
                  CHANNELS 6 Xposition Yposition Zposition Zrotation Xrotation Yrotation
                  }
                }
              }
            }
            JOINT LeftHandIndex1
            {
            OFFSET 8.730 0.680 2.070
            CHANNELS 6 Xposition Yposition Zposition Zrotation Xrotation Yrotation
              JOINT LeftHandIndex2
              {
              OFFSET 2.670 -0.000 0.000
              CHANNELS 6 Xposition Yposition Zposition Zrotation Xrotation Yrotation
                JOINT LeftHandIndex3
                {
                OFFSET 2.130 -0.000 0.000
                CHANNELS 6 Xposition Yposition Zposition Zrotation Xrotation Yrotation
                  JOINT LeftHandIndex4
                  {
                  OFFSET 1.800 -0.000 0.000
                  CHANNELS 6 Xposition Yposition Zposition Zrotation Xrotation Yrotation
                  }
                }
              }
            }
            JOINT LeftHandMiddle1
            {
            OFFSET 9.220 0.670 0.550
            CHANNELS 6 Xposition Yposition Zposition Zrotation Xrotation Yrotation
              JOINT LeftHandMiddle2
              {
              OFFSET 2.660 -0.000 0.000
              CHANNELS 6 Xposition Yposition Zposition Zrotation Xrotation Yrotation
                JOINT LeftHandMiddle3
                {
                OFFSET 2.280 -0.000 0.000
                CHANNELS 6 Xposition Yposition Zposition Zrotation Xrotation Yrotation
                  JOINT LeftHandMiddle4
                  {
                  OFFSET 1.500 -0.000 0.000
                  CHANNELS 6 Xposition Yposition Zposition Zrotation Xrotation Yrotation
                  }
                }
              }
            }
            JOINT LeftHandRing1
            {
            OFFSET 9.250 0.670 -1.130
            CHANNELS 6 Xposition Yposition Zposition Zrotation Xrotation Yrotation
              JOINT LeftHandRing2
              {
              OFFSET 2.470 -0.000 0.000
              CHANNELS 6 Xposition Yposition Zposition Zrotation Xrotation Yrotation
                JOINT LeftHandRing3
                {
                OFFSET 2.210 -0.000 0.000
                CHANNELS 6 Xposition Yposition Zposition Zrotation Xrotation Yrotation
                  JOINT LeftHandRing4
                  {
                  OFFSET 1.800 -0.000 0.000
                  CHANNELS 6 Xposition Yposition Zposition Zrotation Xrotation Yrotation
                  }
                }
              }
            }
            JOINT LeftHandPinky1
            {
            OFFSET 9.350 0.660 -2.720
            CHANNELS 6 Xposition Yposition Zposition Zrotation Xrotation Yrotation
              JOINT LeftHandPinky2
              {
              OFFSET 1.630 -0.000 0.000
              CHANNELS 6 Xposition Yposition Zposition Zrotation Xrotation Yrotation
                JOINT LeftHandPinky3
                {
                OFFSET 1.710 -0.000 0.000
                CHANNELS 6 Xposition Yposition Zposition Zrotation Xrotation Yrotation
                  JOINT LeftHandPinky4
                  {
                  OFFSET 1.800 -0.000 0.000
                  CHANNELS 6 Xposition Yposition Zposition Zrotation Xrotation Yrotation
                  }
                }
              }
            }
          }
        }
      }
    }
    JOINT RightShoulder
    {
      OFFSET -0.000 32.715 0.000
      CHANNELS 6 Xposition Yposition Zposition Zrotation Xrotation Yrotation
      JOINT RightArm
      {
        OFFSET -18.959 0.000 -0.000
        CHANNELS 6 Xposition Yposition Zposition Zrotation Xrotation Yrotation
        JOINT RightForeArm
        {
          OFFSET -26.898 0.000 0.000
          CHANNELS 6 Xposition Yposition Zposition Zrotation Xrotation Yrotation
          JOINT RightHand
          {
            OFFSET -25.920 0.000 -0.000
            CHANNELS 6 Xposition Yposition Zposition Zrotation Xrotation Yrotation
            JOINT RightHandThumb1
            {
            OFFSET -4.970 -0.620 3.390
            CHANNELS 6 Xposition Yposition Zposition Zrotation Xrotation Yrotation
              JOINT RightHandThumb2
              {
              OFFSET -2.150 0.000 0.000
              CHANNELS 6 Xposition Yposition Zposition Zrotation Xrotation Yrotation
                JOINT RightHandThumb3
                {
                OFFSET -2.200 0.000 0.000
                CHANNELS 6 Xposition Yposition Zposition Zrotation Xrotation Yrotation
                  JOINT RightHandThumb4
                  {
                  OFFSET -1.700 0.000 0.000
                  CHANNELS 6 Xposition Yposition Zposition Zrotation Xrotation Yrotation
                  }
                }
              }
            }
            JOINT RightHandIndex1
            {
            OFFSET -8.730 0.680 2.070
            CHANNELS 6 Xposition Yposition Zposition Zrotation Xrotation Yrotation
              JOINT RightHandIndex2
              {
              OFFSET -2.670 0.000 0.000
              CHANNELS 6 Xposition Yposition Zposition Zrotation Xrotation Yrotation
                JOINT RightHandIndex3
                {
                OFFSET -2.130 0.000 0.000
                CHANNELS 6 Xposition Yposition Zposition Zrotation Xrotation Yrotation
                  JOINT RightHandIndex4
                  {
                  OFFSET -1.800 0.000 0.000
                  CHANNELS 6 Xposition Yposition Zposition Zrotation Xrotation Yrotation
                  }
                }
              }
            }
            JOINT RightHandMiddle1
            {
            OFFSET -9.220 0.670 0.550
            CHANNELS 6 Xposition Yposition Zposition Zrotation Xrotation Yrotation
              JOINT RightHandMiddle2
              {
              OFFSET -2.660 0.000 0.000
              CHANNELS 6 Xposition Yposition Zposition Zrotation Xrotation Yrotation
                JOINT RightHandMiddle3
                {
                OFFSET -2.280 0.000 0.000
                CHANNELS 6 Xposition Yposition Zposition Zrotation Xrotation Yrotation
                  JOINT RightHandMiddle4
                  {
                  OFFSET -1.500 0.000 0.000
                  CHANNELS 6 Xposition Yposition Zposition Zrotation Xrotation Yrotation
                  }
                }
              }
            }
            JOINT RightHandRing1
            {
            OFFSET -9.250 0.670 -1.130
            CHANNELS 6 Xposition Yposition Zposition Zrotation Xrotation Yrotation
              JOINT RightHandRing2
              {
              OFFSET -2.470 0.000 0.000
              CHANNELS 6 Xposition Yposition Zposition Zrotation Xrotation Yrotation
                JOINT RightHandRing3
                {
                OFFSET -2.210 0.000 0.000
                CHANNELS 6 Xposition Yposition Zposition Zrotation Xrotation Yrotation
                  JOINT RightHandRing4
                  {
                  OFFSET -1.800 0.000 0.000
                  CHANNELS 6 Xposition Yposition Zposition Zrotation Xrotation Yrotation
                  }
                }
              }
            }
            JOINT RightHandPinky1
            {
            OFFSET -9.350 0.660 -2.720
            CHANNELS 6 Xposition Yposition Zposition Zrotation Xrotation Yrotation
              JOINT RightHandPinky2
              {
              OFFSET -1.630 0.000 0.000
              CHANNELS 6 Xposition Yposition Zposition Zrotation Xrotation Yrotation
                JOINT RightHandPinky3
                {
                OFFSET -1.710 0.000 0.000
                CHANNELS 6 Xposition Yposition Zposition Zrotation Xrotation Yrotation
                  JOINT RightHandPinky4
                  {
                  OFFSET -1.800 0.000 0.000
                  CHANNELS 6 Xposition Yposition Zposition Zrotation Xrotation Yrotation
                  }
                }
              }
            }
          }
        }
      }
    }
    JOINT Neck
    {
      OFFSET -0.000 32.715 0.000
      CHANNELS 6 Xposition Yposition Zposition Zrotation Xrotation Yrotation
      JOINT Head
      {
        OFFSET -0.000 21.698 -0.000
        CHANNELS 6 Xposition Yposition Zposition Zrotation Xrotation Yrotation
        End Site
        {
          OFFSET -0.000 0.087 -0.000
        }
      }
    }
  }
}
MOTION
Frames:	4
Frame Time:	0.0333333
-31.588 22.9311 -326.4 2.30785 4.99988 -1.49217 7.76038 -7.8615 1.76604 0.529295 -8.55556 1.56729 4.47035e-06 -53.8973 -2.38419e-05 -6.59526 15.5686 -6.09326e-07 2.98023e-06 -39.8195 -2.38419e-05 15.0691 -32.7043 15.4327 -8.18833 -7.75824 1.72465 -2.16745 -2.07412 -0.213753 8.9407e-06 -54.5913 4.76837e-05 4.49923 3.96444 -0.311703 0 -38.2269 -4.76837e-05 -3.27928 -27.5868 -3.15077 -1.19209e-05 6.3489 -6.34887 -1.79258 -3.52812 2.67317 1.49012e-06 32.7153 -2.38419e-05 -17.3092 1.18461e-05 -5.87916 18.2929 5.96046e-06 7.15256e-05 -64.1349 -6.86826 -8.00944 27.4708 -6.70552e-06 4.76837e-05 -12.6704 3.02736 -13.2199 24.0483 1.49012e-06 -2.38419e-05 -2.03989 -0.0028244 1.37548 0.0062 0.0497 0.0339 -1.61149e-43 0 0 0 0.0215 0 0 -1.61149e-43 0 0 0.022 0 0 -1.61149e-43 0 0 0.017 0 0 0 0 -0.0068 0.0873 0.0207 -1.61149e-43 0 0 0 0.0267 0 -3.20897e-43 0 0 0 0.0213 0 -4.00771e-43 0 0 0 0.018 0 0 0 0 -0.0067 0.0922 0.0055 -1.61149e-43 0 0 0 0.0266 0 -3.20897e-43 0 0 0 0.0228 0 -4.00771e-43 0 0 0 0.015 0 0 0 0 -0.0067 0.0925 -0.0113 -1.61149e-43 0 0 0 0.0247 0 -3.20897e-43 0 0 0 0.0221 0 -4.00771e-43 0 0 0 0.018 0 0 0 0 -0.0066 0.0935 -0.0272 -1.61149e-43 0 0 0 0.0163 0 -3.20897e-43 0 0 0 0.0171 0 -4.00771e-43 0 0 0 0.018 0 0 0 0 1.49012e-06 32.7153 -2.38419e-05 25.114 -1.92099e-06 5.36517 -20.0395 -1.19209e-05 0 47.8784 37.8197 7.127 -27.3168 2.38419e-05 -2.38419e-05 1.66515e-06 5.12264e-06 21.3396 -25.5446 -2.38419e-05 -2.38419e-05 6.11707 0.0105633 4.99872 -0.0062 0.0497 0.0339 1.61149e-43 0 0 0 0.0215 0 0 -1.61149e-43 0 0 0.022 0 0 -1.61149e-43 0 0 0.017 0 0 0 0 0.0068 0.0873 0.0207 1.61149e-43 0 0 0 0.0267 0 3.20897e-43 0 0 0 0.0213 0 4.00771e-43 0 0 0 0.018 0 0 0 0 0.0067 0.0922 0.0055 1.61149e-43 0 0 0 0.0266 0 3.20897e-43 0 0 0 0.0228 0 4.00771e-43 0 0 0 0.015 0 0 0 0 0.0067 0.0925 -0.0113 1.61149e-43 0 0 0 0.0247 0 3.20897e-43 0 0 0 0.0221 0 4.00771e-43 0 0 0 0.018 0 0 0 0 0.0066 0.0935 -0.0272 1.61149e-43 0 0 0 0.0163 0 3.20897e-43 0 0 0 0.0171 0 4.00771e-43 0 0 0 0.018 0 0 0 0 1.49012e-06 32.7153 -2.38419e-05 0.717955 -0.583777 0.0073153 4.47035e-06 25.0035 0 9.8334e-06 -9.81839e-06 0 
-31.3292 22.9654 -326.286 2.30513 4.80472 -1.9596 7.82382 -7.87305 1.8297 0.454931 -7.78242 1.14956 -1.49012e-05 -54.0721 2.38419e-05 -6.65941 15.0199 -5.52484e-07 1.19209e-05 -39.9001 7.15256e-05 16.4297 -36.3708 17.3514 -8.21198 -7.77859 1.68505 -2.22043 -2.20357 -0.589243 5.96046e-06 -54.3938 4.76837e-05 3.32578 3.6858 -0.214038 -5.96046e-06 -37.9688 -2.38419e-05 -1.75256 -26.6469 -1.72078 8.9407e-06 6.3414 -6.34141 -1.80394 -3.41167 2.61587 -2.98023e-06 32.7153 -4.76837e-05 -17.3431 1.12058e-05 -5.51274 18.2721 -8.9407e-06 0 -62.3129 -6.9297 -8.70854 26.5622 -2.98023e-06 2.38419e-05 -14.5323 2.9496 -11.2278 24.902 0 -4.76837e-05 -1.04803 0.000497002 1.32116 0.0062 0.0497 0.0339 -1.61149e-43 0 0 0 0.0215 0 0 -1.61149e-43 0 0 0.022 0 0 -1.61149e-43 0 0 0.017 0 0 0 0 -0.0068 0.0873 0.0207 -1.61149e-43 0 0 0 0.0267 0 -3.20897e-43 0 0 0 0.0213 0 -4.00771e-43 0 0 0 0.018 0 0 0 0 -0.0067 0.0922 0.0055 -1.61149e-43 0 0 0 0.0266 0 -3.20897e-43 0 0 0 0.0228 0 -4.00771e-43 0 0 0 0.015 0 0 0 0 -0.0067 0.0925 -0.0113 -1.61149e-43 0 0 0 0.0247 0 -3.20897e-43 0 0 0 0.0221 0 -4.00771e-43 0 0 0 0.018 0 0 0 0 -0.0066 0.0935 -0.0272 -1.61149e-43 0 0 0 0.0163 0 -3.20897e-43 0 0 0 0.0171 0 -4.00771e-43 0 0 0 0.018 0 0 0 0 -2.98023e-06 32.7153 -4.76837e-05 24.9664 -2.77476e-06 5.01904 -20.0641 1.78814e-05 -4.76837e-05 48.9274 36.1158 6.52901 -27.5207 0 -9.53674e-05 5.29127e-06 -8.53774e-06 22.0008 -25.3134 4.76837e-05 4.76837e-05 6.14796 0.00604145 4.83307 -0.0062 0.0497 0.0339 1.61149e-43 0 0 0 0.0215 0 0 -1.61149e-43 0 0 0.022 0 0 -1.61149e-43 0 0 0.017 0 0 0 0 0.0068 0.0873 0.0207 1.61149e-43 0 0 0 0.0267 0 3.20897e-43 0 0 0 0.0213 0 4.00771e-43 0 0 0 0.018 0 0 0 0 0.0067 0.0922 0.0055 1.61149e-43 0 0 0 0.0266 0 3.20897e-43 0 0 0 0.0228 0 4.00771e-43 0 0 0 0.015 0 0 0 0 0.0067 0.0925 -0.0113 1.61149e-43 0 0 0 0.0247 0 3.20897e-43 0 0 0 0.0221 0 4.00771e-43 0 0 0 0.018 0 0 0 0 0.0066 0.0935 -0.0272 1.61149e-43 0 0 0 0.0163 0 3.20897e-43 0 0 0 0.0171 0 4.00771e-43 0 0 0 0.018 0 0 0 0 -2.98023e-06 32.7153 -4.76837e-05 0.525835 -0.981535 0.00900783 -5.96046e-06 25.0102 -2.38419e-05 9.70834e-06 -9.8184e-06 -5.33609e-08 
-31.1314 22.9968 -326.176 2.29356 4.69556 -2.27679 7.83593 -7.87533 1.82917 0.430011 -7.23981 0.914005 5.96046e-06 -54.3105 0 -6.50443 13.0892 -9.86116e-07 2.98023e-06 -39.9639 0 16.6185 -36.6659 17.6658 -8.20994 -7.78172 1.68762 -2.32873 -2.25546 -0.583673 -1.19209e-05 -54.3256 -4.76837e-05 4.36357 6.15548 -0.468789 0 -38.3349 -2.38419e-05 -1.75697 -27.8036 -1.73529 -1.19209e-05 6.34144 -6.34153 -1.76651 -3.38489 2.58803 2.98023e-06 32.7153 -9.53674e-05 -17.554 1.19528e-05 -5.43646 18.2801 1.49012e-05 0 -61.5301 -6.95307 -8.72384 26.607 -1.2666e-05 0 -14.8834 2.99056 -11.1061 25.1555 -5.96046e-06 2.38419e-05 -0.464681 0.00284178 1.75539 0.0062 0.0497 0.0339 -1.61149e-43 0 0 0 0.0215 0 0 -1.61149e-43 0 0 0.022 0 0 -1.61149e-43 0 0 0.017 0 0 0 0 -0.0068 0.0873 0.0207 -1.61149e-43 0 0 0 0.0267 0 -3.20897e-43 0 0 0 0.0213 0 -4.00771e-43 0 0 0 0.018 0 0 0 0 -0.0067 0.0922 0.0055 -1.61149e-43 0 0 0 0.0266 0 -3.20897e-43 0 0 0 0.0228 0 -4.00771e-43 0 0 0 0.015 0 0 0 0 -0.0067 0.0925 -0.0113 -1.61149e-43 0 0 0 0.0247 0 -3.20897e-43 0 0 0 0.0221 0 -4.00771e-43 0 0 0 0.018 0 0 0 0 -0.0066 0.0935 -0.0272 -1.61149e-43 0 0 0 0.0163 0 -3.20897e-43 0 0 0 0.0171 0 -4.00771e-43 0 0 0 0.018 0 0 0 0 2.98023e-06 32.7153 -9.53674e-05 24.9856 -2.24116e-06 4.94281 -20.1005 0 0 49.3324 36.132 6.08704 -27.5424 2.38419e-05 -2.38419e-05 6.68185e-06 1.70755e-06 22.2914 -25.2886 -2.38419e-05 -7.15256e-05 5.76883 0.00652648 4.95665 -0.0062 0.0497 0.0339 1.61149e-43 0 0 0 0.0215 0 0 -1.61149e-43 0 0 0.022 0 0 -1.61149e-43 0 0 0.017 0 0 0 0 0.0068 0.0873 0.0207 1.61149e-43 0 0 0 0.0267 0 3.20897e-43 0 0 0 0.0213 0 4.00771e-43 0 0 0 0.018 0 0 0 0 0.0067 0.0922 0.0055 1.61149e-43 0 0 0 0.0266 0 3.20897e-43 0 0 0 0.0228 0 4.00771e-43 0 0 0 0.015 0 0 0 0 0.0067 0.0925 -0.0113 1.61149e-43 0 0 0 0.0247 0 3.20897e-43 0 0 0 0.0221 0 4.00771e-43 0 0 0 0.018 0 0 0 0 0.0066 0.0935 -0.0272 1.61149e-43 0 0 0 0.0163 0 3.20897e-43 0 0 0 0.0171 0 4.00771e-43 0 0 0 0.018 0 0 0 0 2.98023e-06 32.7153 -9.53674e-05 0.474691 -1.20377 0.00997252 0 25.05 7.15256e-05 9.92439e-06 -1.01386e-05 -5.33609e-08 
-31.1314 22.9968 -326.176 2.29356 4.69556 -2.27679 7.83593 -7.87533 1.82917 0.430011 -7.23981 0.914005 5.96046e-06 -54.3105 0 -6.50443 13.0892 -9.86116e-07 2.98023e-06 -39.9639 0 16.6185 -36.6659 17.6658 -8.20994 -7.78172 1.68762 -2.32873 -2.25546 -0.583673 -1.19209e-05 -54.3256 -4.76837e-05 4.36357 6.15548 -0.468789 0 -38.3349 -2.38419e-05 -1.75697 -27.8036 -1.73529 -1.19209e-05 6.34144 -6.34153 -1.76651 -3.38489 2.58803 2.98023e-06 32.7153 -9.53674e-05 -17.554 1.19528e-05 -5.43646 18.2801 1.49012e-05 0 -61.5301 -6.95307 -8.72384 26.607 -1.2666e-05 0 -14.8834 2.99056 -11.1061 25.1555 -5.96046e-06 2.38419e-05 -0.464681 0.00284178 1.75539 0.0062 0.0497 0.0339 -1.61149e-43 0 0 0 0.0215 0 0 -1.61149e-43 0 0 0.022 0 0 -1.61149e-43 0 0 0.017 0 0 0 0 -0.0068 0.0873 0.0207 -1.61149e-43 0 0 0 0.0267 0 -3.20897e-43 0 0 0 0.0213 0 -4.00771e-43 0 0 0 0.018 0 0 0 0 -0.0067 0.0922 0.0055 -1.61149e-43 0 0 0 0.0266 0 -3.20897e-43 0 0 0 0.0228 0 -4.00771e-43 0 0 0 0.015 0 0 0 0 -0.0067 0.0925 -0.0113 -1.61149e-43 0 0 0 0.0247 0 -3.20897e-43 0 0 0 0.0221 0 -4.00771e-43 0 0 0 0.018 0 0 0 0 -0.0066 0.0935 -0.0272 -1.61149e-43 0 0 0 0.0163 0 -3.20897e-43 0 0 0 0.0171 0 -4.00771e-43 0 0 0 0.018 0 0 0 0 2.98023e-06 32.7153 -9.53674e-05 24.9856 -2.24116e-06 4.94281 -20.1005 0 0 49.3324 36.132 6.08704 -27.5424 2.38419e-05 -2.38419e-05 6.68185e-06 1.70755e-06 22.2914 -25.2886 -2.38419e-05 -7.15256e-05 5.76883 0.00652648 4.95665 -0.0062 0.0497 0.0339 1.61149e-43 0 0 0 0.0215 0 0 -1.61149e-43 0 0 0.022 0 0 -1.61149e-43 0 0 0.017 0 0 0 0 0.0068 0.0873 0.0207 1.61149e-43 0 0 0 0.0267 0 3.20897e-43 0 0 0 0.0213 0 4.00771e-43 0 0 0 0.018 0 0 0 0 0.0067 0.0922 0.0055 1.61149e-43 0 0 0 0.0266 0 3.20897e-43 0 0 0 0.0228 0 4.00771e-43 0 0 0 0.015 0 0 0 0 0.0067 0.0925 -0.0113 1.61149e-43 0 0 0 0.0247 0 3.20897e-43 0 0 0 0.0221 0 4.00771e-43 0 0 0 0.018 0 0 0 0 0.0066 0.0935 -0.0272 1.61149e-43 0 0 0 0.0163 0 3.20897e-43 0 0 0 0.0171 0 4.00771e-43 0 0 0 0.018 0 0 0 0 2.98023e-06 32.7153 -9.53674e-05 0.474691 -1.20377 0.00997252 0 25.05 7.15256e-05 9.92439e-06 -1.01386e-05 -5.33609e-08 
